<?xml version="1.0" standalone="no"?>
<!DOCTYPE svg PUBLIC "-//W3C//DTD SVG 20010904//EN"
 "http://www.w3.org/TR/2001/REC-SVG-20010904/DTD/svg10.dtd">
<svg version="1.0" xmlns="http://www.w3.org/2000/svg"
 width="700.000000pt" height="700.000000pt" viewBox="0 0 700.000000 700.000000"
 preserveAspectRatio="xMidYMid meet">
<metadata>
Created by potrace 1.14, written by Peter Selinger 2001-2017
</metadata>
<g transform="translate(0.000000,700.000000) scale(0.100000,-0.100000)"
fill="#000000" stroke="none">
<path d="M3251 6990 c-429 -34 -830 -136 -1211 -310 -981 -445 -1710 -1340
-1948 -2390 -142 -624 -113 -1276 84 -1880 91 -278 227 -568 370 -789 l56 -84
624 624 623 623 -163 166 c-140 142 -168 176 -200 240 -38 78 -66 186 -66 255
0 69 28 177 66 255 35 72 64 102 628 668 l591 592 212 -212 213 -213 493 493
492 492 215 -215 215 -215 -493 -493 -492 -492 265 -265 265 -265 493 493 492
492 215 -215 215 -215 -493 -493 -492 -492 213 -213 212 -212 -590 -588 c-536
-535 -596 -592 -661 -625 -170 -88 -348 -89 -524 -4 -52 25 -98 63 -233 196
l-168 165 -625 -625 -626 -626 94 -61 c693 -449 1559 -633 2403 -511 1384 199
2520 1219 2871 2577 75 293 108 557 108 882 0 249 -11 378 -50 607 -143 841
-608 1620 -1284 2148 -513 401 -1116 647 -1770 721 -160 18 -492 25 -639 14z"/>
</g>
</svg>
